<?xml version="1.0" standalone="no"?>
<!DOCTYPE svg PUBLIC "-//W3C//DTD SVG 20010904//EN"
 "http://www.w3.org/TR/2001/REC-SVG-20010904/DTD/svg10.dtd">
<svg version="1.0" xmlns="http://www.w3.org/2000/svg"
 width="500.000000pt" height="500.000000pt" viewBox="0 0 500.000000 500.000000"
 preserveAspectRatio="xMidYMid meet">

<g transform="translate(0.000000,500.000000) scale(0.100000,-0.100000)"
fill="#ffff" stroke="none">
<path d="M1989 4156 c-19 -7 -46 -20 -60 -29 -14 -10 -43 -17 -70 -17 -29 0
-62 -9 -90 -23 -24 -13 -68 -27 -98 -30 -46 -5 -62 -13 -95 -46 -48 -46 -82
-64 -153 -80 -70 -17 -87 -38 -78 -93 16 -94 67 -167 132 -189 44 -14 51 -7
24 27 -25 31 -28 72 -5 81 8 3 34 -2 56 -11 l41 -16 31 36 c25 29 40 37 78 41
68 8 115 -4 134 -33 14 -21 15 -33 6 -80 -15 -72 -45 -114 -81 -114 -15 0 -33
6 -40 13 -11 10 -13 7 -8 -18 4 -22 0 -36 -15 -52 -45 -48 19 -96 101 -78 50
11 88 50 105 108 9 29 22 60 29 69 8 10 52 35 99 57 80 36 128 78 128 110 0
18 75 13 135 -10 120 -45 220 -179 245 -330 26 -156 -8 -279 -145 -524 -174
-311 -235 -515 -235 -787 0 -229 67 -458 188 -641 l27 -40 51 57 c62 68 104
145 134 243 l22 73 -31 92 c-104 311 -79 514 100 841 92 168 131 270 155 402
27 152 13 343 -35 478 -67 193 -230 362 -421 437 -62 25 -184 50 -238 50 -28
0 -33 3 -24 12 7 7 12 16 12 20 0 12 -71 9 -111 -6z m146 -87 c10 -15 7 -16
-64 -21 -63 -4 -64 -4 -41 14 24 20 95 25 105 7z m194 -23 c37 -20 55 -42 41
-51 -6 -4 -16 -2 -23 3 -7 6 -34 17 -61 24 -28 8 -52 20 -54 26 -5 17 63 15
97 -2z m-465 -52 c3 -8 1 -25 -5 -36 -9 -16 -18 -19 -47 -16 -28 4 -44 -1 -65
-19 -33 -26 -69 -30 -87 -8 -20 24 -4 45 32 45 18 0 51 11 73 25 46 28 90 32
99 9z m665 -58 c43 -28 91 -81 91 -102 0 -22 -12 -16 -50 22 -19 20 -52 47
-73 60 -21 14 -35 29 -32 34 9 15 22 12 64 -14z m-971 -57 c4 -23 -24 -48 -47
-42 -27 7 -33 29 -14 48 19 20 57 16 61 -6z m1157 -179 c17 -32 20 -70 6 -70
-5 0 -12 13 -16 30 -4 16 -11 32 -16 35 -12 8 -12 35 1 35 5 0 16 -13 25 -30z"/>
<path d="M3039 4156 c10 -12 3 -15 -41 -21 -119 -15 -257 -65 -321 -115 l-27
-22 48 -53 c27 -29 65 -78 85 -108 l37 -55 46 14 c57 17 114 18 114 2 0 -30
56 -81 124 -112 80 -37 111 -68 121 -124 8 -46 21 -63 65 -91 46 -27 109 -28
138 -1 27 26 28 45 2 63 -16 11 -19 21 -14 47 7 31 6 32 -15 20 -13 -6 -33 -9
-46 -6 -33 8 -65 80 -65 144 0 71 23 86 121 80 67 -4 74 -6 100 -37 26 -31 30
-33 60 -22 17 6 43 11 55 11 20 0 24 -5 24 -29 0 -15 -9 -40 -21 -55 l-20 -26
21 0 c62 0 131 76 151 166 17 77 5 98 -63 114 -83 20 -120 38 -164 81 -34 34
-50 42 -97 48 -30 4 -68 16 -83 26 -17 11 -51 19 -84 21 -38 2 -71 11 -100 28
-34 20 -59 26 -104 26 -49 0 -57 -2 -47 -14z m56 -81 c28 -13 26 -13 -50 -14
-89 -1 -182 -22 -232 -51 -35 -21 -53 -11 -27 14 55 56 234 85 309 51z m277
-80 c26 -14 61 -25 78 -25 34 0 49 -22 30 -45 -18 -21 -50 -19 -76 6 -16 15
-37 22 -70 23 -54 1 -77 23 -55 50 18 22 39 20 93 -9z m262 -91 c18 -7 22 -39
5 -49 -5 -4 -21 -4 -35 -1 -17 5 -24 13 -24 31 0 26 19 32 54 19z"/>
<path d="M3394 3714 c-40 -14 -56 -30 -51 -54 3 -15 11 -16 79 -4 35 6 38 4
52 -29 17 -41 50 -66 97 -73 70 -10 79 34 11 54 -32 10 -43 19 -55 50 -8 21
-21 43 -29 49 -22 18 -65 21 -104 7z"/>
<path d="M1642 3694 c-12 -8 -30 -32 -40 -51 -18 -39 -31 -48 -75 -58 -43 -9
-32 -39 15 -43 49 -4 87 17 113 64 24 44 54 54 89 30 17 -11 26 -12 35 -3 17
17 13 34 -15 56 -32 25 -90 28 -122 5z"/>
<path d="M2348 3632 c2 -31 -3 -98 -12 -149 -33 -193 -30 -344 10 -466 15 -45
17 -47 30 -29 33 47 93 182 108 243 37 148 2 321 -83 412 -50 54 -58 53 -53
-11z"/>
<path d="M3549 3386 c9 -11 -5 -14 -81 -19 -118 -7 -192 -27 -293 -76 -208
-102 -328 -339 -286 -563 7 -35 31 -101 53 -148 39 -79 54 -97 234 -275 105
-104 205 -210 221 -235 88 -134 128 -240 145 -380 36 -313 -148 -571 -406
-570 -78 0 -85 14 -19 34 193 60 308 214 320 431 14 245 -111 473 -366 670
-44 33 -61 42 -57 29 26 -84 46 -212 46 -307 0 -106 0 -108 35 -158 41 -60 57
-113 57 -189 1 -146 -88 -270 -205 -286 -45 -6 -50 -10 -101 -83 -30 -42 -81
-103 -115 -135 l-60 -60 47 -34 c107 -76 264 -145 390 -171 141 -29 314 -6
445 61 85 42 200 160 250 256 120 228 116 546 -9 797 -85 170 -195 305 -394
484 -128 115 -159 150 -193 221 -54 113 -40 227 40 312 38 40 120 70 183 66
49 -3 54 -5 61 -30 13 -48 48 -86 110 -119 79 -43 104 -74 117 -148 13 -74 34
-106 83 -132 90 -45 194 7 130 65 -16 14 -18 23 -11 42 9 22 8 24 -14 18 -14
-3 -34 -3 -45 1 -31 9 -61 83 -61 148 0 70 19 87 98 87 64 0 114 -21 133 -56
11 -21 18 -24 39 -18 14 4 41 8 60 8 31 1 35 -2 38 -28 3 -20 -4 -37 -25 -58
l-28 -31 42 6 c81 10 148 88 160 186 7 63 0 72 -79 102 -48 18 -76 38 -124 86
-56 57 -65 63 -103 63 -31 0 -54 9 -92 35 -43 30 -60 35 -106 35 -43 0 -61 5
-89 26 -43 33 -98 53 -148 54 -31 0 -36 -3 -27 -14z m37 -87 c13 -14 5 -16
-83 -15 -54 1 -115 -3 -135 -7 -30 -6 -38 -5 -38 7 0 24 51 36 148 33 67 -2
96 -7 108 -18z m-366 -58 c0 -5 -17 -15 -37 -22 -22 -7 -63 -37 -97 -71 -32
-32 -61 -56 -64 -53 -10 10 52 88 97 122 40 31 101 45 101 24z m664 -47 c21
-14 59 -31 84 -38 51 -12 61 -26 37 -50 -24 -23 -50 -20 -87 13 -26 22 -40 27
-65 24 -25 -4 -34 0 -48 21 -14 21 -15 29 -5 41 18 22 40 19 84 -11z m274
-126 c19 -19 14 -46 -9 -53 -31 -10 -68 27 -49 49 15 19 41 21 58 4z m-1203
-107 c-7 -32 -25 -43 -25 -15 0 19 20 57 27 51 3 -3 2 -19 -2 -36z"/>
<path d="M1429 3380 c-47 -8 -80 -25 -132 -67 -19 -15 -42 -23 -68 -23 -44 0
-69 -10 -111 -46 -15 -12 -47 -25 -70 -29 -70 -11 -75 -14 -113 -66 -31 -43
-50 -57 -121 -90 l-84 -39 0 -39 c0 -107 90 -221 176 -221 l26 0 -32 36 c-19
22 -30 44 -28 57 3 19 9 22 43 21 22 -1 49 -4 60 -8 15 -5 24 0 37 24 21 38
72 60 136 60 72 0 87 -16 85 -89 -3 -101 -49 -171 -94 -143 -20 13 -21 12 -15
-15 5 -22 2 -34 -14 -48 -26 -23 -25 -40 2 -59 30 -21 74 -20 125 3 48 22 71
59 79 128 9 67 37 104 116 153 67 41 99 80 112 133 6 25 10 27 59 27 147 0
262 -139 243 -294 -10 -91 -58 -170 -173 -285 -192 -192 -267 -288 -341 -436
-99 -196 -135 -371 -114 -548 44 -354 265 -592 592 -637 300 -41 726 170 947
471 127 173 203 406 203 624 0 215 -57 393 -189 588 -66 98 -75 105 -96 73 -9
-14 -28 -58 -43 -98 -24 -66 -26 -86 -26 -218 0 -130 3 -154 28 -235 15 -49
30 -124 33 -166 14 -184 -84 -377 -261 -518 -122 -97 -285 -154 -347 -121 -23
13 -23 14 27 30 71 24 116 49 109 60 -4 6 -13 10 -21 10 -30 0 -93 40 -131 84
-55 63 -77 135 -71 239 5 86 23 136 72 194 22 27 23 33 14 78 -6 28 -11 116
-11 197 -1 171 6 166 -107 61 -94 -87 -162 -177 -210 -278 -49 -104 -65 -170
-64 -280 1 -228 125 -413 323 -481 62 -20 64 -22 38 -29 -51 -13 -154 1 -211
29 -102 50 -195 164 -233 286 -25 80 -25 312 0 395 46 149 129 276 292 445
195 204 255 325 255 515 -1 306 -264 554 -589 555 -58 0 -72 3 -63 12 13 13
16 29 5 27 -5 -1 -29 -5 -54 -9z m211 -83 c30 -8 46 -18 48 -31 3 -16 0 -18
-19 -12 -54 17 -184 18 -243 3 l-59 -16 20 21 c42 41 163 58 253 35z m204 -67
c34 -12 104 -77 122 -112 20 -39 9 -35 -48 18 -27 25 -69 54 -94 65 -61 28
-44 54 20 29z m-606 -77 c4 -28 -38 -58 -68 -48 -15 5 -28 -1 -49 -24 -32 -34
-61 -39 -86 -15 -24 24 -15 35 42 54 27 9 63 26 78 39 36 28 79 25 83 -6z
m-300 -122 c8 -4 12 -19 10 -32 -2 -19 -9 -24 -33 -24 -36 0 -47 31 -19 52 21
15 24 16 42 4z m1132 -70 c6 -16 10 -39 8 -52 -2 -17 -8 -11 -25 29 -15 38
-18 52 -8 52 7 0 18 -13 25 -29z"/>
<path d="M3872 2864 c-23 -16 -29 -48 -11 -59 5 -4 24 -1 40 5 40 17 75 1 84
-38 7 -34 39 -66 75 -77 57 -17 65 -50 25 -109 l-24 -36 23 0 c13 0 38 13 55
29 26 24 31 37 31 73 0 50 -23 80 -78 99 -24 8 -37 22 -49 50 -8 22 -27 48
-41 59 -30 24 -98 27 -130 4z"/>
<path d="M1049 2825 c-15 -8 -33 -32 -43 -59 -14 -36 -24 -47 -57 -60 -52 -21
-76 -70 -59 -122 14 -40 53 -74 87 -74 l25 0 -27 31 c-40 48 -32 89 21 113 24
11 47 30 54 45 7 14 17 37 24 51 13 28 49 38 71 20 18 -15 35 -4 35 22 0 44
-76 63 -131 33z"/>
<path d="M3830 2475 c-10 -12 -10 -21 -1 -41 6 -14 11 -44 11 -67 0 -85 70
-157 151 -157 76 0 74 53 -3 63 -61 8 -79 32 -88 116 -10 93 -37 126 -70 86z"/>
<path d="M1200 2450 c-9 -5 -16 -34 -21 -80 -7 -84 -30 -115 -93 -127 -31 -7
-42 -14 -44 -30 -6 -44 84 -42 138 3 43 37 52 58 61 144 8 89 -3 114 -41 90z"/>
<path d="M2510 948 c-41 -28 -129 -76 -194 -108 l-120 -58 84 -26 c122 -39
265 -52 405 -38 101 11 292 58 281 70 -3 2 -39 19 -82 38 -66 28 -216 114
-279 158 -18 13 -27 10 -95 -36z"/>
</g>
</svg>
